<mxfile host="65bd71144e">
    <diagram id="r6DLBopaDznnS11_Ngbl" name="Page-1">
        <mxGraphModel dx="1399" dy="302" grid="1" gridSize="10" guides="1" tooltips="1" connect="1" arrows="1" fold="1" page="1" pageScale="1" pageWidth="850" pageHeight="1100" math="0" shadow="0">
            <root>
                <mxCell id="0"/>
                <mxCell id="1" parent="0"/>
                <mxCell id="6" value="" style="edgeStyle=none;html=1;" edge="1" parent="1" source="2" target="5">
                    <mxGeometry relative="1" as="geometry"/>
                </mxCell>
                <mxCell id="8" value="" style="edgeStyle=none;html=1;" edge="1" parent="1" source="2" target="7">
                    <mxGeometry relative="1" as="geometry"/>
                </mxCell>
                <mxCell id="2" value="Node Js" style="rounded=1;whiteSpace=wrap;html=1;" vertex="1" parent="1">
                    <mxGeometry x="130" y="90" width="120" height="60" as="geometry"/>
                </mxCell>
                <mxCell id="5" value="NPM (to a centralized location)&lt;div&gt;-g : global&lt;/div&gt;&lt;div&gt;if we will not use -g then it will be stored in the project dict as a local one&amp;nbsp;&lt;/div&gt;" style="whiteSpace=wrap;html=1;rounded=1;" vertex="1" parent="1">
                    <mxGeometry x="-60" y="200" width="140" height="110" as="geometry"/>
                </mxCell>
                <mxCell id="7" value="npx : it will help us to hold the lib details in the cache. ==&amp;gt;&amp;nbsp;" style="whiteSpace=wrap;html=1;rounded=1;" vertex="1" parent="1">
                    <mxGeometry x="330" y="200" width="120" height="60" as="geometry"/>
                </mxCell>
                <mxCell id="9" value="&lt;div&gt;&lt;font color=&quot;#000000&quot;&gt;npx create-vite@latest my-react-app -- --template react&lt;/font&gt;&lt;/div&gt;&lt;div&gt;&lt;br&gt;&lt;/div&gt;" style="rounded=1;whiteSpace=wrap;html=1;" vertex="1" parent="1">
                    <mxGeometry x="-10" y="370" width="400" height="60" as="geometry"/>
                </mxCell>
            </root>
        </mxGraphModel>
    </diagram>
</mxfile>